# xmcd
#
# Track frame offsets:
#	150
#	17094
#	29602
#	46794
#	61718
#	74179
#	85385
#	110577
#	122111
#	135132
#	150537
#	163479
#	178920
#	191989
#	207651
#	233413
#
# Disc length: 3118 seconds
#
# Revision: 2
# Processed by: cddbd v1.5.2PL0 Copyright (c) Steve Scherf et al.
# Submitted via: audiograbber 1.83.01
#
DISCID=e70c2c10
DTITLE=Various Artist - C06
DYEAR=1900
DGENRE=
TTITLE0=Cal Smith - Country Bumpkin
TTITLE1=Conway Twitty - It's Only Make Believe
TTITLE2=David Fissell and Shelly Ward - You're The Reason God Made Oklahoma
TTITLE3=David Houston - Almost Persuaded
TTITLE4=Dolly Parton - I Will Always Love You
TTITLE5=Conway Twitty and Lorretta Lynn - Louisiana Woman, Mississippi Man - Duet
TTITLE6=Emmylou Harris - Last Cheater's Waltz
TTITLE7=Freddy Fender - Before The Next Teardrop Falls
TTITLE8=Freddy Fender - Wasted Days and Wasted Nights
TTITLE9=George Jones - The Grand Tour
TTITLE10=Hank Williams - Honky Tonkin'
TTITLE11=Helen Reddy - Delta Dawn
TTITLE12=Jim Reeves - One Has My Name, One Has My Heart
TTITLE13=John Conlee - Rose Colored Glasses
TTITLE14=John Denver - Take Me Home, Country Roads
TTITLE15=Data Track - data
EXTD=redo replaced "=" with "-" on a title
EXTT0=
EXTT1=
EXTT2=
EXTT3=
EXTT4=
EXTT5=
EXTT6=
EXTT7=
EXTT8=
EXTT9=
EXTT10=
EXTT11=
EXTT12=
EXTT13=
EXTT14=
EXTT15=
PLAYORDER=
